# xmcd CD database file
#
# Track frame offsets:
#	150
#	19031
#	40006
#	58277
#	73643
#	100151
#	116707
#	130648
#	144673
#	157187
#	178843
#
# Disc length: 2753 seconds
#
# Revision: 1
# Processed by: cddbd v1.5.2PL0 Copyright (c) Steve Scherf et al.
# Submitted via: CDex 1.51
#
DISCID=9d0abf0b
DTITLE=דן הופרט - חם מדי
DYEAR=2004
DGENRE=Jazz
TTITLE0=משחקים
TTITLE1=אם תבואי הלילה
TTITLE2=אליס
TTITLE3=חמוד
TTITLE4=בחצר
TTITLE5=רק עוד מילה
TTITLE6=חם מדי בלוז
TTITLE7=רק אתך
TTITLE8=אריק מנגן
TTITLE9=Waiting
TTITLE10=כוס קפה
EXTD=YEAR: 2004
EXTT0=
EXTT1=
EXTT2=
EXTT3=
EXTT4=
EXTT5=
EXTT6=
EXTT7=
EXTT8=
EXTT9=
EXTT10=
PLAYORDER=
